<?xml version="1.0" encoding="UTF-8" standalone="no"?>
<!-- Created with Inkscape (http://www.inkscape.org/) -->

<svg
   xmlns:dc="http://purl.org/dc/elements/1.1/"
   xmlns:cc="http://creativecommons.org/ns#"
   xmlns:rdf="http://www.w3.org/1999/02/22-rdf-syntax-ns#"
   xmlns:svg="http://www.w3.org/2000/svg"
   xmlns="http://www.w3.org/2000/svg"
   xmlns:xlink="http://www.w3.org/1999/xlink"
   xmlns:sodipodi="http://sodipodi.sourceforge.net/DTD/sodipodi-0.dtd"
   xmlns:inkscape="http://www.inkscape.org/namespaces/inkscape"
   id="svg3336"
   version="1.1"
   inkscape:version="0.91 r13725"
   width="562.5"
   height="750"
   viewBox="0 0 562.5 750"
   sodipodi:docname="OBEYSUDO.svg">
  <metadata
     id="metadata3342">
    <rdf:RDF>
      <cc:Work
         rdf:about="">
        <dc:format>image/svg+xml</dc:format>
        <dc:type
           rdf:resource="http://purl.org/dc/dcmitype/StillImage" />
        <dc:title></dc:title>
      </cc:Work>
    </rdf:RDF>
  </metadata>
  <defs
     id="defs3340" />
  <sodipodi:namedview
     pagecolor="#ffffff"
     bordercolor="#666666"
     borderopacity="1"
     objecttolerance="10"
     gridtolerance="10"
     guidetolerance="10"
     inkscape:pageopacity="0"
     inkscape:pageshadow="2"
     inkscape:window-width="1366"
     inkscape:window-height="705"
     id="namedview3338"
     showgrid="false"
     inkscape:zoom="0.50723126"
     inkscape:cx="72.206894"
     inkscape:cy="506.62035"
     inkscape:window-x="-8"
     inkscape:window-y="-8"
     inkscape:window-maximized="1"
     inkscape:current-layer="layer1" />
  <g
     inkscape:groupmode="layer"
     id="layer6"
     inkscape:label="Picture"
     style="display:none">

  </g>
  <g
     inkscape:groupmode="layer"
     id="layer1"
     inkscape:label="Background"
     style="display:inline">
    <path
       inkscape:connector-curvature="0"
       id="path4273"
       d="m 1.6250342,750.55236 558.5919458,0 0,-751.7085036 -559.0984848,0 z"
       style="fill:#000000;fill-opacity:1;fill-rule:evenodd;stroke:none;stroke-width:5.28933859;stroke-linecap:butt;stroke-linejoin:miter;stroke-miterlimit:4;stroke-dasharray:none;stroke-opacity:1"
       inkscape:export-xdpi="90"
       inkscape:export-ydpi="90" />
    <path
       style="fill:#7e3b2a;fill-opacity:1;fill-rule:evenodd;stroke:#e8b25a;stroke-width:5.85333347;stroke-linecap:butt;stroke-linejoin:miter;stroke-miterlimit:4;stroke-dasharray:none;stroke-opacity:1"
       d="m 17.313177,733.95564 528.035723,0 0,-718.51506 -528.514552,0 z"
       id="path4172"
       inkscape:connector-curvature="0"
       inkscape:export-xdpi="90"
       inkscape:export-ydpi="90" />
    <path
       style="fill:#9d3131;fill-opacity:1;fill-rule:evenodd;stroke:none;stroke-width:1px;stroke-linecap:butt;stroke-linejoin:miter;stroke-opacity:1"
       d="m 20.024195,423.84474 522.942595,-16.08046 0,23.47906 -522.802227,15.63576 z"
       id="path4174"
       inkscape:connector-curvature="0"
       sodipodi:nodetypes="ccccc"
       inkscape:export-xdpi="90"
       inkscape:export-ydpi="90" />
    <path
       inkscape:connector-curvature="0"
       id="path4189"
       d="m 20.092313,393.08986 523.271487,-25.15614 0.79405,24.3176 -524.065537,15.93223 z"
       style="fill:#9d3131;fill-opacity:1;fill-rule:evenodd;stroke:none;stroke-width:1px;stroke-linecap:butt;stroke-linejoin:miter;stroke-opacity:1"
       sodipodi:nodetypes="ccccc"
       inkscape:export-xdpi="90"
       inkscape:export-ydpi="90" />
    <path
       sodipodi:nodetypes="ccccc"
       style="fill:#9d3131;fill-opacity:1;fill-rule:evenodd;stroke:none;stroke-width:1px;stroke-linecap:butt;stroke-linejoin:miter;stroke-opacity:1"
       d="m 19.993058,370.34451 522.552622,-53.06823 -0.0964,20.54419 -522.257789,44.89249 z"
       id="path4193"
       inkscape:connector-curvature="0"
       inkscape:export-xdpi="90"
       inkscape:export-ydpi="90" />
    <path
       inkscape:connector-curvature="0"
       id="path4195"
       d="m 19.794548,352.31595 522.632772,-60.04758 0.11629,16.20325 -522.550552,56.21277 z"
       style="fill:#9d3131;fill-opacity:1;fill-rule:evenodd;stroke:none;stroke-width:1px;stroke-linecap:butt;stroke-linejoin:miter;stroke-opacity:1"
       sodipodi:nodetypes="ccccc"
       inkscape:export-xdpi="90"
       inkscape:export-ydpi="90" />
    <path
       sodipodi:nodetypes="ccccc"
       style="fill:#9d3131;fill-opacity:1;fill-rule:evenodd;stroke:none;stroke-width:1px;stroke-linecap:butt;stroke-linejoin:miter;stroke-opacity:1"
       d="m 19.893803,320.45149 522.673907,-73.19314 -0.002,17.90574 -522.572567,70.59073 z"
       id="path4197"
       inkscape:connector-curvature="0"
       inkscape:export-xdpi="90"
       inkscape:export-ydpi="90" />
    <path
       inkscape:connector-curvature="0"
       id="path4199"
       d="M 19.695294,297.91579 542.65991,209.2044 542.54361,231.4489 19.695294,313.00947 Z"
       style="fill:#9d3131;fill-opacity:1;fill-rule:evenodd;stroke:none;stroke-width:1px;stroke-linecap:butt;stroke-linejoin:miter;stroke-opacity:1"
       sodipodi:nodetypes="ccccc"
       inkscape:export-xdpi="90"
       inkscape:export-ydpi="90" />
    <path
       sodipodi:nodetypes="ccccc"
       style="fill:#9d3131;fill-opacity:1;fill-rule:evenodd;stroke:none;stroke-width:1px;stroke-linecap:butt;stroke-linejoin:miter;stroke-opacity:1"
       d="m 19.794548,264.79352 522.610782,-104.39799 -0.022,19.85385 -522.290998,98.7993 z"
       id="path4201"
       inkscape:connector-curvature="0"
       inkscape:export-xdpi="90"
       inkscape:export-ydpi="90" />
    <path
       inkscape:connector-curvature="0"
       id="path4203"
       d="M 19.980931,232.59299 542.52367,112.3765 l 0.14037,41.58173 -522.75811,105.3927 z"
       style="fill:#9d3131;fill-opacity:1;fill-rule:evenodd;stroke:none;stroke-width:1px;stroke-linecap:butt;stroke-linejoin:miter;stroke-opacity:1"
       sodipodi:nodetypes="ccccc"
       inkscape:export-xdpi="90"
       inkscape:export-ydpi="90" />
    <path
       sodipodi:nodetypes="ccccc"
       style="fill:#9d3131;fill-opacity:1;fill-rule:evenodd;stroke:none;stroke-width:1px;stroke-linecap:butt;stroke-linejoin:miter;stroke-opacity:1"
       d="M 19.794548,210.70782 542.40533,78.095996 542.56977,105.05198 19.596039,227.37376 Z"
       id="path4205"
       inkscape:connector-curvature="0"
       inkscape:export-xdpi="90"
       inkscape:export-ydpi="90" />
    <path
       inkscape:connector-curvature="0"
       id="path4207"
       d="M 19.695294,191.94553 542.35717,45.812266 542.30898,71.955142 19.695282,204.31396 Z"
       style="fill:#9d3131;fill-opacity:1;fill-rule:evenodd;stroke:none;stroke-width:1px;stroke-linecap:butt;stroke-linejoin:miter;stroke-opacity:1"
       sodipodi:nodetypes="ccccc"
       inkscape:export-xdpi="90"
       inkscape:export-ydpi="90" />
    <path
       sodipodi:nodetypes="cccccc"
       style="fill:#9d3131;fill-opacity:1;fill-rule:evenodd;stroke:none;stroke-width:1px;stroke-linecap:butt;stroke-linejoin:miter;stroke-opacity:1"
       d="M 19.695294,164.58821 516.17242,18.336734 542.44659,18.564492 542.33166,35.46858 19.893803,186.28538 Z"
       id="path4209"
       inkscape:connector-curvature="0"
       inkscape:export-xdpi="90"
       inkscape:export-ydpi="90" />
    <path
       inkscape:connector-curvature="0"
       id="path4211"
       d="M 19.893803,121.19386 305.17217,18.415899 418.71969,18.191338 19.993058,148.1319 Z"
       style="fill:#9d3131;fill-opacity:1;fill-rule:evenodd;stroke:none;stroke-width:1px;stroke-linecap:butt;stroke-linejoin:miter;stroke-opacity:1"
       sodipodi:nodetypes="ccccc"
       inkscape:export-xdpi="90"
       inkscape:export-ydpi="90" />
    <path
       sodipodi:nodetypes="ccccc"
       style="fill:#9d3131;fill-opacity:1;fill-rule:evenodd;stroke:none;stroke-width:1px;stroke-linecap:butt;stroke-linejoin:miter;stroke-opacity:1"
       d="M 19.721444,95.828082 231.50511,18.472937 276.1698,17.844004 19.81571,113.6343 Z"
       id="path4213"
       inkscape:connector-curvature="0"
       inkscape:export-xdpi="90"
       inkscape:export-ydpi="90" />
    <path
       inkscape:connector-curvature="0"
       id="path4215"
       d="M 19.859745,56.145751 126.49349,18.682571 175.52539,18.472907 19.673277,73.80373 Z"
       style="fill:#9d3131;fill-opacity:1;fill-rule:evenodd;stroke:none;stroke-width:1px;stroke-linecap:butt;stroke-linejoin:miter;stroke-opacity:1"
       sodipodi:nodetypes="ccccc"
       inkscape:export-xdpi="90"
       inkscape:export-ydpi="90" />
    <path
       sodipodi:nodetypes="ccccc"
       style="fill:#9d3131;fill-opacity:1;fill-rule:evenodd;stroke:none;stroke-width:1px;stroke-linecap:butt;stroke-linejoin:miter;stroke-opacity:1"
       d="m 19.695294,27.487221 21.042022,-9.22392 43.27511,-2.9e-5 -64.222865,27.326639 z"
       id="path4217"
       inkscape:connector-curvature="0"
       inkscape:export-xdpi="90"
       inkscape:export-ydpi="90" />
  </g>
  <g
     inkscape:groupmode="layer"
     id="layer3"
     inkscape:label="Pinguin"
     style="display:inline">
    <path
       style="fill:#ffffff;fill-opacity:1;fill-rule:evenodd;stroke:none;stroke-width:1px;stroke-linecap:butt;stroke-linejoin:miter;stroke-opacity:1"
       d="m 219.39602,119.72642 -16.67481,50.52191 -8.73443,12.57808 -138.410992,548.13972 487.350242,0.0403 0.76097,-353.70124 c 0,0 -11.89447,-39.22093 -45.67274,-75.47654 C 464.23598,265.57308 381.01791,177.16388 381.01791,177.16388 Z"
       id="path4246"
       inkscape:connector-curvature="0"
       sodipodi:nodetypes="cccccczcc"
       inkscape:export-xdpi="90"
       inkscape:export-ydpi="90" />
    <path
       style="display:inline;fill:#000000;fill-opacity:1;fill-rule:evenodd;stroke:none;stroke-width:1px;stroke-linecap:butt;stroke-linejoin:miter;stroke-opacity:1"
       d="m 381.10125,177.33776 c 5.53618,-3.44355 6.21211,-20.04508 9.01309,-47.96815 20.20655,-62.016897 68.4741,-81.841136 102.03396,-95.174093 0.40877,-4.318672 -13.63879,-10.393311 -35.33472,-9.64319 -21.69591,0.750121 -60.61654,25.879979 -92.10847,26.413953 -31.49194,0.533973 -25.45852,-7.465971 -56.77378,-6.708308 -31.31526,0.757664 -79.91704,38.461986 -88.73381,75.992528 24.42967,-17.54056 23.65235,18.56809 28.7323,32.4877 5.07997,13.91964 2.6174,18.82583 18.78789,27.54898 16.1705,8.72313 52.33578,-7.2497 71.85224,-8.98706 19.51645,-1.73735 33.06481,2.14361 42.5313,6.03764 z"
       id="path4229"
       inkscape:connector-curvature="0"
       sodipodi:nodetypes="ccczzzczzzc"
       inkscape:export-xdpi="90"
       inkscape:export-ydpi="90" />
    <path
       style="fill:#f9cc65;fill-opacity:1;fill-rule:evenodd;stroke:none;stroke-width:1px;stroke-linecap:butt;stroke-linejoin:miter;stroke-opacity:1"
       d="m 354.97813,87.652327 c -0.91831,-1.744262 15.53238,-13.057657 31.56303,-22.850166 16.03066,-9.792509 36.69884,-17.74763 38.11387,-14.884051 1.41501,2.86358 -17.52068,17.103183 -32.36706,24.440407 -14.84638,7.337235 -36.39153,15.038073 -37.30984,13.29381 z"
       id="path4238"
       inkscape:connector-curvature="0"
       sodipodi:nodetypes="zzzzz"
       inkscape:export-xdpi="90"
       inkscape:export-ydpi="90" />
    <path
       style="display:inline;fill:#ffffff;fill-opacity:1;fill-rule:evenodd;stroke:none;stroke-width:1px;stroke-linecap:butt;stroke-linejoin:miter;stroke-opacity:1"
       d="m 332.74505,86.813784 c 0,0 -6.91076,-3.911856 -12.1091,-2.725243 -5.19833,1.186614 -7.54335,10.691359 -7.54335,10.691359 0,0 7.02351,3.582012 11.11653,2.096352 4.09302,-1.485661 8.53592,-10.062468 8.53592,-10.062468 z"
       id="path4232"
       inkscape:connector-curvature="0"
       sodipodi:nodetypes="czczc"
       inkscape:export-xdpi="90"
       inkscape:export-ydpi="90" />
    <path
       style="display:inline;fill:#000000;fill-opacity:1;fill-rule:evenodd;stroke:none;stroke-width:1px;stroke-linecap:butt;stroke-linejoin:miter;stroke-opacity:1"
       d="m 321.04221,84.7839 c -2.66152,0.599177 -4.92062,4.946769 -4.21812,7.715491 0.7025,2.76872 4.30735,4.849385 6.79783,4.144677 2.49048,-0.704719 4.34933,-4.299243 3.81031,-6.969519 -0.53903,-2.670266 -3.72848,-5.489827 -6.39002,-4.890649 z"
       id="path4234"
       inkscape:connector-curvature="0"
       sodipodi:nodetypes="zzzzz"
       inkscape:export-xdpi="90"
       inkscape:export-ydpi="90" />
    <path
       style="display:inline;fill:#f9cc65;fill-opacity:1;fill-rule:evenodd;stroke:none;stroke-width:1px;stroke-linecap:butt;stroke-linejoin:miter;stroke-opacity:1"
       d="m 219.70946,119.84819 c 2.54091,-2.78102 12.19687,-8.30005 18.4721,-3.51855 6.27522,4.78149 8.14712,55.86572 28.22383,63.98313 20.07674,8.11741 52.09739,-10.7604 71.04494,-11.04124 18.94755,-0.28084 27.28628,1.88901 35.4242,5.11188 -1.78756,7.6252 4.75047,18.68816 4.88878,26.69702 0.13831,8.00888 -20.01824,-2.90002 -32.98637,-1.63057 -12.96812,1.26944 -24.27496,8.72791 -43.6543,11.11754 -18.2564,-4.57736 -47.25131,-19.7988 -67.23605,-27.57152 -19.98474,-7.77272 -16.71803,-60.36668 -14.17713,-63.14769 z"
       id="path4227"
       inkscape:connector-curvature="0"
       sodipodi:nodetypes="zzzzczzczz"
       inkscape:export-xdpi="90"
       inkscape:export-ydpi="90" />
    <g
       style="display:inline"
       id="g4223"
       transform="matrix(1.1391809,0,0,1.2030227,-30.329143,-97.035706)"
       inkscape:export-xdpi="90"
       inkscape:export-ydpi="90">
      <path
         inkscape:connector-curvature="0"
         id="path4219"
         d="m 142.10144,688.91373 c 0,0 12.02255,-235.11843 15.96713,-247.8372 3.94458,-12.71877 19.48303,-31.07418 25.45339,-50.63817 5.97036,-19.56399 26.24137,-118.43892 38.76323,-133.31019 12.52186,-14.87127 27.9716,-8.38074 28.23606,-13.06672 0.26447,-4.68597 -12.50109,-3.09435 -18.60845,-1.67031 -6.10736,1.42405 -15.03052,9.08313 -16.53176,10.28079 -1.50124,1.19766 -2.71221,-0.42594 -2.43959,-1.74256 0.27262,-1.31662 5.67597,-6.04468 -0.38163,-6.04709 -6.05761,-0.002 -9.06652,-7.37358 -15.64997,-12.77262 -5.47448,6.24506 -46.1447,24.89659 -62.52135,42.74197 -16.37665,17.84538 -38.737555,111.48894 -65.530719,137.28935 -26.793166,25.80041 -24.596629,34.30419 -24.596629,34.30419 l -0.138349,241.76232"
         style="fill:#000000;fill-opacity:1;fill-rule:evenodd;stroke:none;stroke-width:1px;stroke-linecap:butt;stroke-linejoin:miter;stroke-opacity:1"
         sodipodi:nodetypes="czzzzzzzzczzcc" />
    </g>
  </g>
  <g
     inkscape:groupmode="layer"
     id="layer7"
     inkscape:label="TextBackground"
     style="display:inline">
    <path
       inkscape:connector-curvature="0"
       id="path4344"
       d="m 417.01878,430.64408 0,60.40292 31.91584,37.22125 30.51601,0 0,31.34422 36.95518,0 0,-128.31539 -37.79507,0 0,54.85238 -15.95792,0 -10.07867,-11.75406 0,-43.09832 z"
       style="display:inline;fill:none;fill-opacity:1;fill-rule:evenodd;stroke:#7e3b2a;stroke-width:9;stroke-linecap:butt;stroke-linejoin:miter;stroke-miterlimit:4;stroke-dasharray:none;stroke-opacity:1"
       inkscape:export-xdpi="90"
       inkscape:export-ydpi="90" />
    <path
       inkscape:connector-curvature="0"
       id="path4342"
       d="m 416.99026,579.83271 0,128.49352 100.87651,0 0,-128.07362 z m 35.60347,41.15152 0,45.35064 27.44436,0 0,-44.93074 z"
       style="display:inline;fill:none;fill-opacity:1;fill-rule:evenodd;stroke:#7e3b2a;stroke-width:9;stroke-linecap:butt;stroke-linejoin:miter;stroke-miterlimit:4;stroke-dasharray:none;stroke-opacity:1"
       inkscape:export-xdpi="90"
       inkscape:export-ydpi="90" />
    <path
       sodipodi:nodetypes="ccccccccccccc"
       inkscape:connector-curvature="0"
       id="path4349"
       d="m 299.10273,559.28875 0,-53.79932 9.88344,-10.75985 -10.91298,-11.88069 0,-51.33351 100.27578,0 0,39.90116 -55.18256,0 19.56099,21.29555 -22.64957,24.65803 59.09475,0 0,41.9186 z"
       style="display:inline;fill:none;fill-opacity:1;fill-rule:evenodd;stroke:#7e3b2a;stroke-width:9;stroke-linecap:butt;stroke-linejoin:miter;stroke-miterlimit:4;stroke-dasharray:none;stroke-opacity:1"
       inkscape:export-xdpi="90"
       inkscape:export-ydpi="90" />
    <path
       sodipodi:nodetypes="cccccccccccccc"
       inkscape:connector-curvature="0"
       id="path4352"
       d="m 167.61771,431.13134 101.31073,0 0,50.68362 -11.88828,13.45583 10.8976,12.33451 0,52.25346 -100.05975,0 z m 36.71771,40.81601 0,47.0954 21.00263,0 -18.82311,-21.30507 18.51473,-25.87195 z"
       style="display:inline;fill:none;fill-opacity:1;fill-rule:evenodd;stroke:#7e3b2a;stroke-width:9;stroke-linecap:butt;stroke-linejoin:miter;stroke-miterlimit:4;stroke-dasharray:none;stroke-opacity:1"
       inkscape:export-xdpi="90"
       inkscape:export-ydpi="90" />
    <path
       sodipodi:nodetypes="cccccccccc"
       inkscape:connector-curvature="0"
       id="path4355"
       d="m 43.892909,431.70632 0,128.68979 100.166421,0 0.27367,-128.68979 z m 39.683417,46.42233 0,34.08223 18.883844,0 0.27367,-33.80317 z"
       style="display:inline;fill:none;fill-opacity:1;fill-rule:evenodd;stroke:#7e3b2a;stroke-width:9;stroke-linecap:butt;stroke-linejoin:miter;stroke-miterlimit:4;stroke-dasharray:none;stroke-opacity:1"
       inkscape:export-xdpi="90"
       inkscape:export-ydpi="90" />
    <path
       sodipodi:nodetypes="ccccccccccc"
       inkscape:connector-curvature="0"
       id="path4358"
       d="m 44.138788,709.36601 0,-41.33851 44.513363,0 -44.823933,-48.50947 0,-39.79184 100.951292,0 0,42.46337 -44.69401,0 45.0838,48.79069 0,37.82333 z"
       style="display:inline;fill:none;fill-opacity:1;fill-rule:evenodd;stroke:#7e3b2a;stroke-width:9;stroke-linecap:butt;stroke-linejoin:miter;stroke-miterlimit:4;stroke-dasharray:none;stroke-opacity:1"
       inkscape:export-xdpi="90"
       inkscape:export-ydpi="90" />
    <path
       inkscape:connector-curvature="0"
       id="path4361"
       d="m 168.21183,708.41381 0,-129.39309 38.40814,0 0,84.45915 25.60543,0 0,-84.8752 36.14883,0 0,130.22519 z"
       style="display:inline;fill:none;fill-opacity:1;fill-rule:evenodd;stroke:#7e3b2a;stroke-width:9;stroke-linecap:butt;stroke-linejoin:miter;stroke-miterlimit:4;stroke-dasharray:none;stroke-opacity:1"
       inkscape:export-xdpi="90"
       inkscape:export-ydpi="90" />
    <path
       inkscape:connector-curvature="0"
       id="path4363"
       d="m 298.30863,579.4337 0,129.06715 68.65449,0 32.73987,-35.14204 0,-93.49914 z m 36.90675,40.46661 26.1919,0 0,31.09538 -10.91329,11.71402 -15.27861,0 z"
       style="display:inline;fill:none;fill-opacity:1;fill-rule:evenodd;stroke:#7e3b2a;stroke-width:9;stroke-linecap:butt;stroke-linejoin:miter;stroke-miterlimit:4;stroke-dasharray:none;stroke-opacity:1"
       inkscape:export-xdpi="90"
       inkscape:export-ydpi="90" />
  </g>
  <g
     inkscape:groupmode="layer"
     id="layer2"
     inkscape:label="Text"
     style="display:inline">
    <path
       style="fill:#7e3b2a;fill-opacity:1;fill-rule:evenodd;stroke:#e8b25a;stroke-width:5;stroke-linecap:butt;stroke-linejoin:miter;stroke-miterlimit:4;stroke-dasharray:none;stroke-opacity:1"
       d="m 43.892909,431.70632 0,128.68979 100.166421,0 0.27367,-128.68979 z m 39.683417,46.42233 0,34.08223 18.883844,0 0.27367,-33.80317 z"
       id="path3348"
       inkscape:connector-curvature="0"
       sodipodi:nodetypes="cccccccccc"
       inkscape:export-xdpi="90"
       inkscape:export-ydpi="90" />
    <path
       style="fill:#7e3b2a;fill-opacity:1;fill-rule:evenodd;stroke:#e8b25a;stroke-width:5;stroke-linecap:butt;stroke-linejoin:miter;stroke-miterlimit:4;stroke-dasharray:none;stroke-opacity:1"
       d="m 167.61771,431.13134 101.31073,0 0,50.68362 -11.88828,13.45583 10.8976,12.33451 0,52.25346 -100.05975,0 z m 36.71771,40.81601 0,47.0954 21.00263,0 -18.82311,-21.30507 18.51473,-25.87195 z"
       id="path4156"
       inkscape:connector-curvature="0"
       sodipodi:nodetypes="cccccccccccccc"
       inkscape:export-xdpi="90"
       inkscape:export-ydpi="90" />
    <path
       style="fill:#7e3b2a;fill-opacity:1;fill-rule:evenodd;stroke:#e8b25a;stroke-width:5;stroke-linecap:butt;stroke-linejoin:miter;stroke-miterlimit:4;stroke-dasharray:none;stroke-opacity:1"
       d="m 299.10273,559.28875 0,-53.79932 9.88344,-10.75985 -10.91298,-11.88069 0,-51.33351 100.27578,0 0,39.90116 -55.18256,0 19.56099,21.29555 -22.64957,24.65803 59.09475,0 0,41.9186 z"
       id="path4158"
       inkscape:connector-curvature="0"
       sodipodi:nodetypes="ccccccccccccc"
       inkscape:export-xdpi="90"
       inkscape:export-ydpi="90" />
    <path
       style="fill:#7e3b2a;fill-opacity:1;fill-rule:evenodd;stroke:#e8b25a;stroke-width:5;stroke-linecap:butt;stroke-linejoin:miter;stroke-miterlimit:4;stroke-dasharray:none;stroke-opacity:1"
       d="m 44.138788,709.36601 0,-41.33851 44.513363,0 -44.823933,-48.50947 0,-39.79184 100.951292,0 0,42.46337 -44.69401,0 45.0838,48.79069 0,37.82333 z"
       id="path4162"
       inkscape:connector-curvature="0"
       sodipodi:nodetypes="ccccccccccc"
       inkscape:export-xdpi="90"
       inkscape:export-ydpi="90" />
    <path
       style="fill:#7e3b2a;fill-opacity:1;fill-rule:evenodd;stroke:#e8b25a;stroke-width:5;stroke-linecap:butt;stroke-linejoin:miter;stroke-miterlimit:4;stroke-dasharray:none;stroke-opacity:1"
       d="m 168.21183,708.41381 0,-129.39309 38.40814,0 0,84.45915 25.60543,0 0,-84.8752 36.14883,0 0,130.22519 z"
       id="path4166"
       inkscape:connector-curvature="0"
       inkscape:export-xdpi="90"
       inkscape:export-ydpi="90" />
    <path
       style="fill:#7e3b2a;fill-opacity:1;fill-rule:evenodd;stroke:#e8b25a;stroke-width:5;stroke-linecap:butt;stroke-linejoin:miter;stroke-miterlimit:4;stroke-dasharray:none;stroke-opacity:1"
       d="m 298.30863,579.4337 0,129.06715 68.65449,0 32.73987,-35.14204 0,-93.49914 z m 36.90675,40.46661 26.1919,0 0,31.09538 -10.91329,11.71402 -15.27861,0 z"
       id="path4168"
       inkscape:connector-curvature="0"
       inkscape:export-xdpi="90"
       inkscape:export-ydpi="90" />
    <path
       style="fill:#7e3b2a;fill-opacity:1;fill-rule:evenodd;stroke:#e8b25a;stroke-width:5;stroke-linecap:butt;stroke-linejoin:miter;stroke-miterlimit:4;stroke-dasharray:none;stroke-opacity:1"
       d="m 416.99026,579.83271 0,128.49352 100.87651,0 0,-128.07362 z m 35.60347,41.15152 0,45.35064 27.44436,0 0,-44.93074 z"
       id="path4170"
       inkscape:connector-curvature="0"
       inkscape:export-xdpi="90"
       inkscape:export-ydpi="90" />
    <path
       style="fill:#7e3b2a;fill-opacity:1;fill-rule:evenodd;stroke:#e8b25a;stroke-width:5;stroke-linecap:butt;stroke-linejoin:miter;stroke-miterlimit:4;stroke-dasharray:none;stroke-opacity:1"
       d="m 417.01878,430.64408 0,60.40292 31.91584,37.22125 30.51601,0 0,31.34422 36.95518,0 0,-128.31539 -37.79507,0 0,54.85238 -15.95792,0 -10.07867,-11.75406 0,-43.09832 z"
       id="path4160"
       inkscape:connector-curvature="0"
       inkscape:export-xdpi="90"
       inkscape:export-ydpi="90" />
  </g>
  <g
     inkscape:groupmode="layer"
     id="layer4"
     inkscape:label="Planes"
     style="display:inline">
    <path
       style="display:inline;fill:#fbd161;fill-opacity:1;fill-rule:evenodd;stroke:none;stroke-width:1px;stroke-linecap:butt;stroke-linejoin:miter;stroke-opacity:1"
       d="m 161.13217,144.70063 c -7.94373,-0.22267 -65.55163,17.93632 -65.55163,17.93632 l -3.789926,-11.56225 -6.597272,1.03763 -0.98258,13.48931 -5.053223,8.00463 89.414101,-25.34802 c 0,0 0.50425,-3.33495 -7.43947,-3.55762 z"
       id="path4275"
       inkscape:connector-curvature="0"
       sodipodi:nodetypes="zccccccz"
       inkscape:export-xdpi="90"
       inkscape:export-ydpi="90" />
    <path
       style="display:inline;fill:#000000;fill-opacity:1;fill-rule:evenodd;stroke:none;stroke-width:1px;stroke-linecap:butt;stroke-linejoin:miter;stroke-opacity:1"
       d="M 95.2998,167.08398 77.052021,155.37349 73.6832,158.18993 85.193342,169.90042 Z"
       id="path4277"
       inkscape:connector-curvature="0"
       inkscape:export-xdpi="90"
       inkscape:export-ydpi="90" />
    <path
       style="display:inline;fill:#000000;fill-opacity:1;fill-rule:evenodd;stroke:none;stroke-width:1px;stroke-linecap:butt;stroke-linejoin:miter;stroke-opacity:1"
       d="m 122.95221,158.33817 21.89733,-8.15287 -45.619455,-28.90564 -7.720201,5.63289 z"
       id="path4279"
       inkscape:connector-curvature="0"
       inkscape:export-xdpi="90"
       inkscape:export-ydpi="90" />
    <path
       style="display:inline;fill:#fbd161;fill-opacity:1;fill-rule:evenodd;stroke:none;stroke-width:1px;stroke-linecap:butt;stroke-linejoin:miter;stroke-opacity:1"
       d="m 113.54759,142.47711 c 0,0 7.53679,-9.93477 11.18828,-9.97508 3.65148,-0.0403 5.58761,2.59518 4.70231,4.7435 -0.88529,2.14831 -15.89059,5.23158 -15.89059,5.23158 z"
       id="path4281"
       inkscape:connector-curvature="0"
       sodipodi:nodetypes="czzc"
       inkscape:export-xdpi="90"
       inkscape:export-ydpi="90" />
    <path
       style="display:inline;fill:#000000;fill-opacity:1;fill-rule:evenodd;stroke:none;stroke-width:1px;stroke-linecap:butt;stroke-linejoin:miter;stroke-opacity:1"
       d="m 169.27348,148.0359 c 1.15596,4.46761 -3.92026,5.87798 -3.78991,9.11639 0.13034,3.23841 24.47211,19.11474 24.47211,19.11474 l -7.90874,3.41683 c 0,0 -41.50278,-14.76465 -44.63688,-14.97163 -3.13409,-0.20698 -30.60012,8.15288 -30.60012,8.15288 l 5.41619,5.83507 c 0,0 -10.83527,-2.38909 -12.318287,-3.15634 -1.483006,-0.76724 -20.319233,-2.07836 -20.319233,-2.07836 0,0 78.06606,-22.31439 89.68487,-25.42958 z"
       id="path4283"
       inkscape:connector-curvature="0"
       sodipodi:nodetypes="czcczcczcc"
       inkscape:export-xdpi="90"
       inkscape:export-ydpi="90" />
    <path
       sodipodi:nodetypes="czzc"
       inkscape:connector-curvature="0"
       id="path4285"
       d="m 124.49626,150.18529 c 0,0 7.53679,-9.93478 11.18827,-9.9751 3.65149,-0.0403 5.30687,3.114 4.28121,4.81761 -1.02566,1.70361 -15.46948,5.15749 -15.46948,5.15749 z"
       style="display:inline;fill:#fbd161;fill-opacity:1;fill-rule:evenodd;stroke:none;stroke-width:1px;stroke-linecap:butt;stroke-linejoin:miter;stroke-opacity:1"
       inkscape:export-xdpi="90"
       inkscape:export-ydpi="90" />
    <path
       style="display:inline;fill:#fbd161;fill-opacity:1;fill-rule:evenodd;stroke:none;stroke-width:1px;stroke-linecap:butt;stroke-linejoin:miter;stroke-opacity:1"
       d="m 157.90372,169.011 c 0,0 7.5368,-9.93478 11.18829,-9.97509 3.65147,-0.0403 5.30687,3.55871 4.21102,5.41054 -1.09584,1.85185 -15.39931,4.56455 -15.39931,4.56455 z"
       id="path4287"
       inkscape:connector-curvature="0"
       sodipodi:nodetypes="czzc"
       inkscape:export-xdpi="90"
       inkscape:export-ydpi="90" />
    <path
       sodipodi:nodetypes="zccccccz"
       inkscape:connector-curvature="0"
       id="path4289"
       d="M 162.24533,47.531758 C 153.18919,47.277909 87.513939,67.979849 87.513939,67.979849 L 83.19328,54.798437 75.672134,55.981381 74.551958,71.359706 68.791083,80.485296 170.72662,51.587581 c 0,0 0.57487,-3.801973 -8.48129,-4.055823 z"
       style="display:inline;fill:#fbd161;fill-opacity:1;fill-rule:evenodd;stroke:none;stroke-width:1px;stroke-linecap:butt;stroke-linejoin:miter;stroke-opacity:1"
       inkscape:export-xdpi="90"
       inkscape:export-ydpi="90" />
    <path
       inkscape:connector-curvature="0"
       id="path4291"
       d="M 87.193886,73.049628 66.390715,59.699226 62.550131,62.910082 75.672134,76.260484 Z"
       style="display:inline;fill:#000000;fill-opacity:1;fill-rule:evenodd;stroke:none;stroke-width:1px;stroke-linecap:butt;stroke-linejoin:miter;stroke-opacity:1"
       inkscape:export-xdpi="90"
       inkscape:export-ydpi="90" />
    <path
       inkscape:connector-curvature="0"
       id="path4293"
       d="M 118.7187,63.079071 143.6825,53.784482 91.674577,20.830951 82.873238,27.252668 Z"
       style="display:inline;fill:#000000;fill-opacity:1;fill-rule:evenodd;stroke:none;stroke-width:1px;stroke-linecap:butt;stroke-linejoin:miter;stroke-opacity:1"
       inkscape:export-xdpi="90"
       inkscape:export-ydpi="90" />
    <path
       sodipodi:nodetypes="czzc"
       inkscape:connector-curvature="0"
       id="path4295"
       d="m 107.99708,44.996869 c 0,0 8.59223,-11.326038 12.75506,-11.371994 4.16284,-0.04595 6.37009,2.958606 5.36083,5.407768 -1.00928,2.449173 -18.11589,5.964226 -18.11589,5.964226 z"
       style="display:inline;fill:#fbd161;fill-opacity:1;fill-rule:evenodd;stroke:none;stroke-width:1px;stroke-linecap:butt;stroke-linejoin:miter;stroke-opacity:1"
       inkscape:export-xdpi="90"
       inkscape:export-ydpi="90" />
    <path
       sodipodi:nodetypes="czcczcczcc"
       inkscape:connector-curvature="0"
       id="path4297"
       d="m 171.52675,51.33408 c 1.31783,5.093262 -4.46926,6.701138 -4.32065,10.393047 0.14859,3.691907 27.89914,21.791542 27.89914,21.791542 l -9.01626,3.895316 c 0,0 -47.31478,-16.832274 -50.88776,-17.068235 -3.57299,-0.235973 -34.88534,9.29459 -34.88534,9.29459 l 6.17468,6.652198 c 0,0 -12.352623,-2.723643 -14.043329,-3.598337 -1.690675,-0.874681 -23.164702,-2.369402 -23.164702,-2.369402 0,0 88.998321,-25.439263 102.244221,-28.990719 z"
       style="display:inline;fill:#000000;fill-opacity:1;fill-rule:evenodd;stroke:none;stroke-width:1px;stroke-linecap:butt;stroke-linejoin:miter;stroke-opacity:1"
       inkscape:export-xdpi="90"
       inkscape:export-ydpi="90" />
    <path
       style="display:inline;fill:#fbd161;fill-opacity:1;fill-rule:evenodd;stroke:none;stroke-width:1px;stroke-linecap:butt;stroke-linejoin:miter;stroke-opacity:1"
       d="m 120.47898,53.784469 c 0,0 8.59223,-11.326026 12.75506,-11.371993 4.16285,-0.04595 6.05004,3.550084 4.88076,5.492267 -1.1693,1.942185 -17.63582,5.879726 -17.63582,5.879726 z"
       id="path4299"
       inkscape:connector-curvature="0"
       sodipodi:nodetypes="czzc"
       inkscape:export-xdpi="90"
       inkscape:export-ydpi="90" />
    <path
       sodipodi:nodetypes="czzc"
       inkscape:connector-curvature="0"
       id="path4301"
       d="m 158.56477,75.246516 c 0,0 8.59225,-11.326027 12.75508,-11.371994 4.16283,-0.04595 6.05005,4.057074 4.80074,6.168235 -1.24931,2.111184 -17.55582,5.203759 -17.55582,5.203759 z"
       style="display:inline;fill:#fbd161;fill-opacity:1;fill-rule:evenodd;stroke:none;stroke-width:1px;stroke-linecap:butt;stroke-linejoin:miter;stroke-opacity:1"
       inkscape:export-xdpi="90"
       inkscape:export-ydpi="90" />
    <path
       style="display:inline;fill:#fbd161;fill-opacity:1;fill-rule:evenodd;stroke:none;stroke-width:1px;stroke-linecap:butt;stroke-linejoin:miter;stroke-opacity:1"
       d="m 242.26287,35.598554 c -5.57757,-0.156345 -46.0261,12.5937 -46.0261,12.5937 l -2.66103,-8.11825 -4.63218,0.728562 -0.6899,9.471302 -3.54805,5.62033 62.78078,-17.797724 c 0,0 0.35404,-2.341575 -5.22352,-2.49792 z"
       id="path4303"
       inkscape:connector-curvature="0"
       sodipodi:nodetypes="zccccccz"
       inkscape:export-xdpi="90"
       inkscape:export-ydpi="90" />
    <path
       style="display:inline;fill:#000000;fill-opacity:1;fill-rule:evenodd;stroke:none;stroke-width:1px;stroke-linecap:butt;stroke-linejoin:miter;stroke-opacity:1"
       d="m 196.03967,51.314675 -12.8124,-8.222347 -2.36537,1.977528 8.08166,8.222336 z"
       id="path4305"
       inkscape:connector-curvature="0"
       inkscape:export-xdpi="90"
       inkscape:export-ydpi="90" />
    <path
       style="display:inline;fill:#000000;fill-opacity:1;fill-rule:evenodd;stroke:none;stroke-width:1px;stroke-linecap:butt;stroke-linejoin:miter;stroke-opacity:1"
       d="m 215.45539,45.17393 15.37487,-5.724415 -32.03101,-20.295641 -5.42062,3.955048 z"
       id="path4307"
       inkscape:connector-curvature="0"
       inkscape:export-xdpi="90"
       inkscape:export-ydpi="90" />
    <path
       style="display:inline;fill:#fbd161;fill-opacity:1;fill-rule:evenodd;stroke:none;stroke-width:1px;stroke-linecap:butt;stroke-linejoin:miter;stroke-opacity:1"
       d="m 208.85207,34.037344 c 0,0 5.29185,-6.975559 7.85568,-7.003855 2.56384,-0.02827 3.92326,1.822159 3.30166,3.330569 -0.6216,1.50841 -11.15734,3.673286 -11.15734,3.673286 z"
       id="path4309"
       inkscape:connector-curvature="0"
       sodipodi:nodetypes="czzc"
       inkscape:export-xdpi="90"
       inkscape:export-ydpi="90" />
    <path
       style="display:inline;fill:#000000;fill-opacity:1;fill-rule:evenodd;stroke:none;stroke-width:1px;stroke-linecap:butt;stroke-linejoin:miter;stroke-opacity:1"
       d="m 247.97917,37.940346 c 0.81163,3.13687 -2.75256,4.12715 -2.66103,6.400948 0.0914,2.273797 17.18272,13.421126 17.18272,13.421126 l -5.55301,2.399068 c 0,0 -29.14055,-10.366771 -31.34111,-10.512097 -2.20056,-0.145337 -21.48542,5.724416 -21.48542,5.724416 l 3.80291,4.097001 c 0,0 -7.60781,-1.677458 -8.6491,-2.216172 -1.04126,-0.538701 -14.26684,-1.459278 -14.26684,-1.459278 0,0 54.8129,-15.667711 62.97088,-17.855012 z"
       id="path4311"
       inkscape:connector-curvature="0"
       sodipodi:nodetypes="czcczcczcc"
       inkscape:export-xdpi="90"
       inkscape:export-ydpi="90" />
    <path
       sodipodi:nodetypes="czzc"
       inkscape:connector-curvature="0"
       id="path4313"
       d="m 216.53952,39.449515 c 0,0 5.29183,-6.975548 7.85566,-7.003867 2.56384,-0.02827 3.72616,2.186458 3.006,3.382624 -0.72015,1.196165 -10.86166,3.621243 -10.86166,3.621243 z"
       style="display:inline;fill:#fbd161;fill-opacity:1;fill-rule:evenodd;stroke:none;stroke-width:1px;stroke-linecap:butt;stroke-linejoin:miter;stroke-opacity:1"
       inkscape:export-xdpi="90"
       inkscape:export-ydpi="90" />
    <path
       style="display:inline;fill:#fbd161;fill-opacity:1;fill-rule:evenodd;stroke:none;stroke-width:1px;stroke-linecap:butt;stroke-linejoin:miter;stroke-opacity:1"
       d="m 239.99606,52.667703 c 0,0 5.29185,-6.975547 7.85569,-7.003867 2.56382,-0.02827 3.72613,2.498703 2.9567,3.798942 -0.76943,1.300251 -10.81239,3.204925 -10.81239,3.204925 z"
       id="path4315"
       inkscape:connector-curvature="0"
       sodipodi:nodetypes="czzc"
       inkscape:export-xdpi="90"
       inkscape:export-ydpi="90" />
  </g>
  <g
     inkscape:groupmode="layer"
     id="layer5"
     inkscape:label="HELPLINES"
     style="display:none">
    <path
       style="fill:none;fill-rule:evenodd;stroke:#ff0000;stroke-width:1;stroke-linecap:butt;stroke-linejoin:miter;stroke-miterlimit:4;stroke-dasharray:none;stroke-opacity:1"
       d="m 171.33078,808.89144 0,-530.08103"
       id="path4249"
       inkscape:connector-curvature="0" />
    <path
       style="fill:none;fill-rule:evenodd;stroke:#ff0000;stroke-width:1;stroke-linecap:butt;stroke-linejoin:miter;stroke-miterlimit:4;stroke-dasharray:none;stroke-opacity:1"
       d="m -50.85502,436.04065 567.19089,0"
       id="path4251"
       inkscape:connector-curvature="0" />
    <path
       inkscape:connector-curvature="0"
       id="path4253"
       d="m -44.233273,548.95887 567.190893,0"
       style="fill:none;fill-rule:evenodd;stroke:#ff0000;stroke-width:1;stroke-linecap:butt;stroke-linejoin:miter;stroke-miterlimit:4;stroke-dasharray:none;stroke-opacity:1" />
    <path
       inkscape:connector-curvature="0"
       id="path4255"
       d="m 264.97643,814.55947 0,-530.08103"
       style="fill:none;fill-rule:evenodd;stroke:#ff0000;stroke-width:1;stroke-linecap:butt;stroke-linejoin:miter;stroke-miterlimit:4;stroke-dasharray:none;stroke-opacity:1" />
    <path
       inkscape:connector-curvature="0"
       id="path4257"
       d="m 62.652542,808.89144 0,-530.08103"
       style="fill:none;fill-rule:evenodd;stroke:#ff0000;stroke-width:1;stroke-linecap:butt;stroke-linejoin:miter;stroke-miterlimit:4;stroke-dasharray:none;stroke-opacity:1" />
    <path
       style="fill:none;fill-rule:evenodd;stroke:#ff0000;stroke-width:1;stroke-linecap:butt;stroke-linejoin:miter;stroke-miterlimit:4;stroke-dasharray:none;stroke-opacity:1"
       d="m 156.29819,814.55947 0,-530.08103"
       id="path4259"
       inkscape:connector-curvature="0" />
    <path
       style="fill:none;fill-rule:evenodd;stroke:#ff0000;stroke-width:1;stroke-linecap:butt;stroke-linejoin:miter;stroke-miterlimit:4;stroke-dasharray:none;stroke-opacity:1"
       d="m 285.92348,819.24175 0,-530.08103"
       id="path4261"
       inkscape:connector-curvature="0" />
    <path
       inkscape:connector-curvature="0"
       id="path4263"
       d="m 379.56913,824.90978 0,-530.08103"
       style="fill:none;fill-rule:evenodd;stroke:#ff0000;stroke-width:1;stroke-linecap:butt;stroke-linejoin:miter;stroke-miterlimit:4;stroke-dasharray:none;stroke-opacity:1" />
    <path
       inkscape:connector-curvature="0"
       id="path4265"
       d="m 389.91944,831.07067 0,-530.08103"
       style="fill:none;fill-rule:evenodd;stroke:#ff0000;stroke-width:1;stroke-linecap:butt;stroke-linejoin:miter;stroke-miterlimit:4;stroke-dasharray:none;stroke-opacity:1" />
    <path
       style="fill:none;fill-rule:evenodd;stroke:#ff0000;stroke-width:1;stroke-linecap:butt;stroke-linejoin:miter;stroke-miterlimit:4;stroke-dasharray:none;stroke-opacity:1"
       d="m 483.56509,836.7387 0,-530.08103"
       id="path4267"
       inkscape:connector-curvature="0" />
    <path
       inkscape:connector-curvature="0"
       id="path4269"
       d="m -45.43343,559.75148 567.19089,0"
       style="fill:none;fill-rule:evenodd;stroke:#ff0000;stroke-width:1;stroke-linecap:butt;stroke-linejoin:miter;stroke-miterlimit:4;stroke-dasharray:none;stroke-opacity:1" />
    <path
       style="fill:none;fill-rule:evenodd;stroke:#ff0000;stroke-width:1;stroke-linecap:butt;stroke-linejoin:miter;stroke-miterlimit:4;stroke-dasharray:none;stroke-opacity:1"
       d="m -38.811683,672.6697 567.190893,0"
       id="path4271"
       inkscape:connector-curvature="0" />
  </g>
</svg>
